<svg width="144" height="29" viewBox="0 0 144 29" fill="none" xmlns="http://www.w3.org/2000/svg">
<circle cx="14.5" cy="14.5" r="14.5" fill="black"/>
<path d="M24.96 18.76H17.96L16.58 22H13.9L20.2 8H22.76L29.08 22H26.36L24.96 18.76ZM24.1 16.72L21.46 10.6L18.84 16.72H24.1Z" fill="white"/>
<path d="M35.4205 22.14C34.3405 22.14 33.3671 21.9067 32.5005 21.44C31.6338 20.9733 30.9538 20.3267 30.4605 19.5C29.9805 18.66 29.7405 17.7133 29.7405 16.66C29.7405 15.6067 29.9805 14.6667 30.4605 13.84C30.9538 13.0133 31.6338 12.3667 32.5005 11.9C33.3671 11.4333 34.3405 11.2 35.4205 11.2C36.5138 11.2 37.4938 11.4333 38.3605 11.9C39.2271 12.3667 39.9005 13.0133 40.3805 13.84C40.8738 14.6667 41.1205 15.6067 41.1205 16.66C41.1205 17.7133 40.8738 18.66 40.3805 19.5C39.9005 20.3267 39.2271 20.9733 38.3605 21.44C37.4938 21.9067 36.5138 22.14 35.4205 22.14ZM35.4205 20C36.3405 20 37.1005 19.6933 37.7005 19.08C38.3005 18.4667 38.6005 17.66 38.6005 16.66C38.6005 15.66 38.3005 14.8533 37.7005 14.24C37.1005 13.6267 36.3405 13.32 35.4205 13.32C34.5005 13.32 33.7405 13.6267 33.1405 14.24C32.5538 14.8533 32.2605 15.66 32.2605 16.66C32.2605 17.66 32.5538 18.4667 33.1405 19.08C33.7405 19.6933 34.5005 20 35.4205 20ZM43.5111 7.16H46.0111V22H43.5111V7.16ZM56.2397 21.42C55.9464 21.66 55.5864 21.84 55.1597 21.96C54.7464 22.08 54.3064 22.14 53.8397 22.14C52.6664 22.14 51.7597 21.8333 51.1197 21.22C50.4797 20.6067 50.1597 19.7133 50.1597 18.54V13.4H48.3997V11.4H50.1597V8.96H52.6597V11.4H55.5197V13.4H52.6597V18.48C52.6597 19 52.7864 19.4 53.0397 19.68C53.293 19.9467 53.6597 20.08 54.1397 20.08C54.6997 20.08 55.1664 19.9333 55.5397 19.64L56.2397 21.42ZM66.6636 10.18V14.44H73.4236V16.64H66.6636V22H64.0636V8H74.2836V10.18H66.6636ZM80.3059 11.2C81.8793 11.2 83.0793 11.58 83.9059 12.34C84.7459 13.0867 85.1659 14.22 85.1659 15.74V22H82.8059V20.7C82.4993 21.1667 82.0593 21.5267 81.4859 21.78C80.9259 22.02 80.2459 22.14 79.4459 22.14C78.6459 22.14 77.9459 22.0067 77.3459 21.74C76.7459 21.46 76.2793 21.08 75.9459 20.6C75.6259 20.1067 75.4659 19.5533 75.4659 18.94C75.4659 17.98 75.8193 17.2133 76.5259 16.64C77.2459 16.0533 78.3726 15.76 79.9059 15.76H82.6659V15.6C82.6659 14.8533 82.4393 14.28 81.9859 13.88C81.5459 13.48 80.8859 13.28 80.0059 13.28C79.4059 13.28 78.8126 13.3733 78.2259 13.56C77.6526 13.7467 77.1659 14.0067 76.7659 14.34L75.7859 12.52C76.3459 12.0933 77.0193 11.7667 77.8059 11.54C78.5926 11.3133 79.4259 11.2 80.3059 11.2ZM79.9659 20.32C80.5926 20.32 81.1459 20.18 81.6259 19.9C82.1193 19.6067 82.4659 19.1933 82.6659 18.66V17.42H80.0859C78.6459 17.42 77.9259 17.8933 77.9259 18.84C77.9259 19.2933 78.1059 19.6533 78.4659 19.92C78.8259 20.1867 79.3259 20.32 79.9659 20.32ZM91.6744 22.14C90.8077 22.14 89.961 22.0267 89.1344 21.8C88.3077 21.5733 87.6477 21.2867 87.1544 20.94L88.1144 19.04C88.5944 19.36 89.1677 19.62 89.8344 19.82C90.5144 20.0067 91.181 20.1 91.8344 20.1C93.3277 20.1 94.0744 19.7067 94.0744 18.92C94.0744 18.5467 93.881 18.2867 93.4944 18.14C93.121 17.9933 92.5144 17.8533 91.6744 17.72C90.7944 17.5867 90.0744 17.4333 89.5144 17.26C88.9677 17.0867 88.4877 16.7867 88.0744 16.36C87.6744 15.92 87.4744 15.3133 87.4744 14.54C87.4744 13.5267 87.8944 12.72 88.7344 12.12C89.5877 11.5067 90.7344 11.2 92.1744 11.2C92.9077 11.2 93.641 11.2867 94.3744 11.46C95.1077 11.62 95.7077 11.84 96.1744 12.12L95.2144 14.02C94.3077 13.4867 93.2877 13.22 92.1544 13.22C91.421 13.22 90.861 13.3333 90.4744 13.56C90.101 13.7733 89.9144 14.06 89.9144 14.42C89.9144 14.82 90.1144 15.1067 90.5144 15.28C90.9277 15.44 91.561 15.5933 92.4144 15.74C93.2677 15.8733 93.9677 16.0267 94.5144 16.2C95.061 16.3733 95.5277 16.6667 95.9144 17.08C96.3144 17.4933 96.5144 18.08 96.5144 18.84C96.5144 19.84 96.081 20.64 95.2144 21.24C94.3477 21.84 93.1677 22.14 91.6744 22.14ZM104.727 11.2C106.074 11.2 107.154 11.5933 107.967 12.38C108.781 13.1667 109.187 14.3333 109.187 15.88V22H106.687V16.2C106.687 15.2667 106.467 14.5667 106.027 14.1C105.587 13.62 104.961 13.38 104.147 13.38C103.227 13.38 102.501 13.66 101.967 14.22C101.434 14.7667 101.167 15.56 101.167 16.6V22H98.6673V7.16H101.167V12.56C101.581 12.12 102.087 11.7867 102.687 11.56C103.301 11.32 103.981 11.2 104.727 11.2ZM112.359 11.32H114.859V22H112.359V11.32ZM113.619 9.56C113.165 9.56 112.785 9.42 112.479 9.14C112.172 8.84667 112.019 8.48667 112.019 8.06C112.019 7.63333 112.172 7.28 112.479 7C112.785 6.70667 113.165 6.56 113.619 6.56C114.072 6.56 114.452 6.7 114.759 6.98C115.065 7.24667 115.219 7.58667 115.219 8C115.219 8.44 115.065 8.81333 114.759 9.12C114.465 9.41333 114.085 9.56 113.619 9.56ZM122.94 22.14C121.86 22.14 120.887 21.9067 120.02 21.44C119.153 20.9733 118.473 20.3267 117.98 19.5C117.5 18.66 117.26 17.7133 117.26 16.66C117.26 15.6067 117.5 14.6667 117.98 13.84C118.473 13.0133 119.153 12.3667 120.02 11.9C120.887 11.4333 121.86 11.2 122.94 11.2C124.033 11.2 125.013 11.4333 125.88 11.9C126.747 12.3667 127.42 13.0133 127.9 13.84C128.393 14.6667 128.64 15.6067 128.64 16.66C128.64 17.7133 128.393 18.66 127.9 19.5C127.42 20.3267 126.747 20.9733 125.88 21.44C125.013 21.9067 124.033 22.14 122.94 22.14ZM122.94 20C123.86 20 124.62 19.6933 125.22 19.08C125.82 18.4667 126.12 17.66 126.12 16.66C126.12 15.66 125.82 14.8533 125.22 14.24C124.62 13.6267 123.86 13.32 122.94 13.32C122.02 13.32 121.26 13.6267 120.66 14.24C120.073 14.8533 119.78 15.66 119.78 16.66C119.78 17.66 120.073 18.4667 120.66 19.08C121.26 19.6933 122.02 20 122.94 20ZM137.091 11.2C138.437 11.2 139.517 11.5933 140.331 12.38C141.144 13.1667 141.551 14.3333 141.551 15.88V22H139.051V16.2C139.051 15.2667 138.831 14.5667 138.391 14.1C137.951 13.62 137.324 13.38 136.511 13.38C135.591 13.38 134.864 13.66 134.331 14.22C133.797 14.7667 133.531 15.56 133.531 16.6V22H131.031V11.32H133.411V12.7C133.824 12.2067 134.344 11.8333 134.971 11.58C135.597 11.3267 136.304 11.2 137.091 11.2Z" fill="black"/>
</svg>
